<mxfile host="Electron" agent="Mozilla/5.0 (X11; Linux x86_64) AppleWebKit/537.36 (KHTML, like Gecko) draw.io/25.0.2 Chrome/128.0.6613.186 Electron/32.2.7 Safari/537.36" version="25.0.2">
  <diagram name="第 1 页" id="R2uXJV93Y-oFxAE8zQsn">
    <mxGraphModel dx="1026" dy="969" grid="1" gridSize="10" guides="1" tooltips="1" connect="1" arrows="1" fold="1" page="0" pageScale="1" pageWidth="827" pageHeight="1169" math="0" shadow="0">
      <root>
        <mxCell id="0" />
        <mxCell id="1" parent="0" />
        <mxCell id="7KRmtmi9uo70IsTt9rsc-3" style="edgeStyle=orthogonalEdgeStyle;rounded=0;orthogonalLoop=1;jettySize=auto;html=1;exitX=1;exitY=0.5;exitDx=0;exitDy=0;" edge="1" parent="1" source="7KRmtmi9uo70IsTt9rsc-1" target="7KRmtmi9uo70IsTt9rsc-2">
          <mxGeometry relative="1" as="geometry" />
        </mxCell>
        <mxCell id="7KRmtmi9uo70IsTt9rsc-11" style="edgeStyle=orthogonalEdgeStyle;rounded=0;orthogonalLoop=1;jettySize=auto;html=1;exitX=1;exitY=0.5;exitDx=0;exitDy=0;entryX=0.5;entryY=0;entryDx=0;entryDy=0;" edge="1" parent="1" source="7KRmtmi9uo70IsTt9rsc-1" target="7KRmtmi9uo70IsTt9rsc-10">
          <mxGeometry relative="1" as="geometry" />
        </mxCell>
        <mxCell id="7KRmtmi9uo70IsTt9rsc-1" value="功能" style="rounded=0;whiteSpace=wrap;html=1;" vertex="1" parent="1">
          <mxGeometry x="120" y="200" width="80" height="40" as="geometry" />
        </mxCell>
        <mxCell id="7KRmtmi9uo70IsTt9rsc-20" style="edgeStyle=orthogonalEdgeStyle;rounded=0;orthogonalLoop=1;jettySize=auto;html=1;exitX=1;exitY=0.5;exitDx=0;exitDy=0;entryX=0;entryY=0.5;entryDx=0;entryDy=0;" edge="1" parent="1" source="7KRmtmi9uo70IsTt9rsc-2" target="7KRmtmi9uo70IsTt9rsc-7">
          <mxGeometry relative="1" as="geometry" />
        </mxCell>
        <mxCell id="7KRmtmi9uo70IsTt9rsc-2" value="文件管理" style="rounded=0;whiteSpace=wrap;html=1;" vertex="1" parent="1">
          <mxGeometry x="240" y="120" width="80" height="40" as="geometry" />
        </mxCell>
        <mxCell id="7KRmtmi9uo70IsTt9rsc-24" style="edgeStyle=orthogonalEdgeStyle;rounded=0;orthogonalLoop=1;jettySize=auto;html=1;exitX=1;exitY=0.5;exitDx=0;exitDy=0;entryX=0;entryY=0.5;entryDx=0;entryDy=0;" edge="1" parent="1" source="7KRmtmi9uo70IsTt9rsc-7" target="7KRmtmi9uo70IsTt9rsc-21">
          <mxGeometry relative="1" as="geometry" />
        </mxCell>
        <mxCell id="7KRmtmi9uo70IsTt9rsc-25" style="edgeStyle=orthogonalEdgeStyle;rounded=0;orthogonalLoop=1;jettySize=auto;html=1;exitX=1;exitY=0.5;exitDx=0;exitDy=0;entryX=0;entryY=0.5;entryDx=0;entryDy=0;" edge="1" parent="1" source="7KRmtmi9uo70IsTt9rsc-7" target="7KRmtmi9uo70IsTt9rsc-22">
          <mxGeometry relative="1" as="geometry" />
        </mxCell>
        <mxCell id="7KRmtmi9uo70IsTt9rsc-26" style="edgeStyle=orthogonalEdgeStyle;rounded=0;orthogonalLoop=1;jettySize=auto;html=1;exitX=1;exitY=0.5;exitDx=0;exitDy=0;entryX=0;entryY=0.5;entryDx=0;entryDy=0;" edge="1" parent="1" source="7KRmtmi9uo70IsTt9rsc-7" target="7KRmtmi9uo70IsTt9rsc-23">
          <mxGeometry relative="1" as="geometry" />
        </mxCell>
        <mxCell id="7KRmtmi9uo70IsTt9rsc-7" value="文件类型" style="rounded=0;whiteSpace=wrap;html=1;" vertex="1" parent="1">
          <mxGeometry x="360" y="80" width="80" height="40" as="geometry" />
        </mxCell>
        <mxCell id="7KRmtmi9uo70IsTt9rsc-15" style="edgeStyle=orthogonalEdgeStyle;rounded=0;orthogonalLoop=1;jettySize=auto;html=1;exitX=1;exitY=0.5;exitDx=0;exitDy=0;entryX=0;entryY=0.5;entryDx=0;entryDy=0;" edge="1" parent="1" source="7KRmtmi9uo70IsTt9rsc-10" target="7KRmtmi9uo70IsTt9rsc-12">
          <mxGeometry relative="1" as="geometry" />
        </mxCell>
        <mxCell id="7KRmtmi9uo70IsTt9rsc-16" style="edgeStyle=orthogonalEdgeStyle;rounded=0;orthogonalLoop=1;jettySize=auto;html=1;exitX=1;exitY=0.5;exitDx=0;exitDy=0;entryX=0;entryY=0.5;entryDx=0;entryDy=0;" edge="1" parent="1" source="7KRmtmi9uo70IsTt9rsc-10" target="7KRmtmi9uo70IsTt9rsc-13">
          <mxGeometry relative="1" as="geometry" />
        </mxCell>
        <mxCell id="7KRmtmi9uo70IsTt9rsc-17" style="edgeStyle=orthogonalEdgeStyle;rounded=0;orthogonalLoop=1;jettySize=auto;html=1;exitX=1;exitY=0.5;exitDx=0;exitDy=0;entryX=0;entryY=0.5;entryDx=0;entryDy=0;" edge="1" parent="1" source="7KRmtmi9uo70IsTt9rsc-10" target="7KRmtmi9uo70IsTt9rsc-14">
          <mxGeometry relative="1" as="geometry" />
        </mxCell>
        <mxCell id="7KRmtmi9uo70IsTt9rsc-19" style="edgeStyle=orthogonalEdgeStyle;rounded=0;orthogonalLoop=1;jettySize=auto;html=1;exitX=1;exitY=0.5;exitDx=0;exitDy=0;entryX=0;entryY=0.5;entryDx=0;entryDy=0;" edge="1" parent="1" source="7KRmtmi9uo70IsTt9rsc-10" target="7KRmtmi9uo70IsTt9rsc-18">
          <mxGeometry relative="1" as="geometry" />
        </mxCell>
        <mxCell id="7KRmtmi9uo70IsTt9rsc-10" value="权限管理" style="rounded=0;whiteSpace=wrap;html=1;" vertex="1" parent="1">
          <mxGeometry x="240" y="280" width="80" height="40" as="geometry" />
        </mxCell>
        <mxCell id="7KRmtmi9uo70IsTt9rsc-12" value="上传" style="rounded=0;whiteSpace=wrap;html=1;" vertex="1" parent="1">
          <mxGeometry x="360" y="200" width="80" height="40" as="geometry" />
        </mxCell>
        <mxCell id="7KRmtmi9uo70IsTt9rsc-13" value="下载" style="rounded=0;whiteSpace=wrap;html=1;" vertex="1" parent="1">
          <mxGeometry x="360" y="280" width="80" height="40" as="geometry" />
        </mxCell>
        <mxCell id="7KRmtmi9uo70IsTt9rsc-14" value="查看" style="rounded=0;whiteSpace=wrap;html=1;" vertex="1" parent="1">
          <mxGeometry x="360" y="360" width="80" height="40" as="geometry" />
        </mxCell>
        <mxCell id="7KRmtmi9uo70IsTt9rsc-18" value="修改" style="rounded=0;whiteSpace=wrap;html=1;" vertex="1" parent="1">
          <mxGeometry x="360" y="440" width="80" height="40" as="geometry" />
        </mxCell>
        <mxCell id="7KRmtmi9uo70IsTt9rsc-28" style="edgeStyle=orthogonalEdgeStyle;rounded=0;orthogonalLoop=1;jettySize=auto;html=1;exitX=1;exitY=0.5;exitDx=0;exitDy=0;entryX=0;entryY=0.5;entryDx=0;entryDy=0;" edge="1" parent="1" source="7KRmtmi9uo70IsTt9rsc-21" target="7KRmtmi9uo70IsTt9rsc-27">
          <mxGeometry relative="1" as="geometry" />
        </mxCell>
        <mxCell id="7KRmtmi9uo70IsTt9rsc-30" style="edgeStyle=orthogonalEdgeStyle;rounded=0;orthogonalLoop=1;jettySize=auto;html=1;exitX=1;exitY=0.5;exitDx=0;exitDy=0;entryX=0;entryY=0.5;entryDx=0;entryDy=0;" edge="1" parent="1" source="7KRmtmi9uo70IsTt9rsc-21" target="7KRmtmi9uo70IsTt9rsc-29">
          <mxGeometry relative="1" as="geometry" />
        </mxCell>
        <mxCell id="7KRmtmi9uo70IsTt9rsc-21" value="音频" style="rounded=0;whiteSpace=wrap;html=1;" vertex="1" parent="1">
          <mxGeometry x="480" y="-40" width="80" height="40" as="geometry" />
        </mxCell>
        <mxCell id="7KRmtmi9uo70IsTt9rsc-34" style="edgeStyle=orthogonalEdgeStyle;rounded=0;orthogonalLoop=1;jettySize=auto;html=1;exitX=1;exitY=0.5;exitDx=0;exitDy=0;" edge="1" parent="1" source="7KRmtmi9uo70IsTt9rsc-22" target="7KRmtmi9uo70IsTt9rsc-31">
          <mxGeometry relative="1" as="geometry" />
        </mxCell>
        <mxCell id="7KRmtmi9uo70IsTt9rsc-35" style="edgeStyle=orthogonalEdgeStyle;rounded=0;orthogonalLoop=1;jettySize=auto;html=1;exitX=1;exitY=0.5;exitDx=0;exitDy=0;entryX=0;entryY=0.5;entryDx=0;entryDy=0;" edge="1" parent="1" source="7KRmtmi9uo70IsTt9rsc-22" target="7KRmtmi9uo70IsTt9rsc-33">
          <mxGeometry relative="1" as="geometry" />
        </mxCell>
        <mxCell id="7KRmtmi9uo70IsTt9rsc-22" value="视频" style="rounded=0;whiteSpace=wrap;html=1;" vertex="1" parent="1">
          <mxGeometry x="480" y="40" width="80" height="40" as="geometry" />
        </mxCell>
        <mxCell id="7KRmtmi9uo70IsTt9rsc-38" style="edgeStyle=orthogonalEdgeStyle;rounded=0;orthogonalLoop=1;jettySize=auto;html=1;exitX=1;exitY=0.5;exitDx=0;exitDy=0;entryX=0;entryY=0.5;entryDx=0;entryDy=0;" edge="1" parent="1" source="7KRmtmi9uo70IsTt9rsc-23" target="7KRmtmi9uo70IsTt9rsc-32">
          <mxGeometry relative="1" as="geometry" />
        </mxCell>
        <mxCell id="7KRmtmi9uo70IsTt9rsc-39" style="edgeStyle=orthogonalEdgeStyle;rounded=0;orthogonalLoop=1;jettySize=auto;html=1;exitX=1;exitY=0.5;exitDx=0;exitDy=0;entryX=0;entryY=0.5;entryDx=0;entryDy=0;" edge="1" parent="1" source="7KRmtmi9uo70IsTt9rsc-23" target="7KRmtmi9uo70IsTt9rsc-36">
          <mxGeometry relative="1" as="geometry" />
        </mxCell>
        <mxCell id="7KRmtmi9uo70IsTt9rsc-40" style="edgeStyle=orthogonalEdgeStyle;rounded=0;orthogonalLoop=1;jettySize=auto;html=1;exitX=1;exitY=0.5;exitDx=0;exitDy=0;entryX=0;entryY=0.5;entryDx=0;entryDy=0;" edge="1" parent="1" source="7KRmtmi9uo70IsTt9rsc-23" target="7KRmtmi9uo70IsTt9rsc-37">
          <mxGeometry relative="1" as="geometry" />
        </mxCell>
        <mxCell id="7KRmtmi9uo70IsTt9rsc-42" style="edgeStyle=orthogonalEdgeStyle;rounded=0;orthogonalLoop=1;jettySize=auto;html=1;exitX=1;exitY=0.5;exitDx=0;exitDy=0;entryX=0;entryY=0.5;entryDx=0;entryDy=0;" edge="1" parent="1" source="7KRmtmi9uo70IsTt9rsc-23" target="7KRmtmi9uo70IsTt9rsc-41">
          <mxGeometry relative="1" as="geometry" />
        </mxCell>
        <mxCell id="7KRmtmi9uo70IsTt9rsc-23" value="文档" style="rounded=0;whiteSpace=wrap;html=1;" vertex="1" parent="1">
          <mxGeometry x="480" y="120" width="80" height="40" as="geometry" />
        </mxCell>
        <mxCell id="7KRmtmi9uo70IsTt9rsc-27" value="flac" style="rounded=0;whiteSpace=wrap;html=1;" vertex="1" parent="1">
          <mxGeometry x="600" y="-200" width="80" height="40" as="geometry" />
        </mxCell>
        <mxCell id="7KRmtmi9uo70IsTt9rsc-29" value="mp3" style="rounded=0;whiteSpace=wrap;html=1;" vertex="1" parent="1">
          <mxGeometry x="600" y="-130" width="80" height="40" as="geometry" />
        </mxCell>
        <mxCell id="7KRmtmi9uo70IsTt9rsc-31" value="mkv" style="rounded=0;whiteSpace=wrap;html=1;" vertex="1" parent="1">
          <mxGeometry x="600" width="80" height="40" as="geometry" />
        </mxCell>
        <mxCell id="7KRmtmi9uo70IsTt9rsc-32" value="word" style="rounded=0;whiteSpace=wrap;html=1;" vertex="1" parent="1">
          <mxGeometry x="600" y="160" width="80" height="40" as="geometry" />
        </mxCell>
        <mxCell id="7KRmtmi9uo70IsTt9rsc-33" value="mp4" style="rounded=0;whiteSpace=wrap;html=1;" vertex="1" parent="1">
          <mxGeometry x="600" y="80" width="80" height="40" as="geometry" />
        </mxCell>
        <mxCell id="7KRmtmi9uo70IsTt9rsc-36" value="excel" style="rounded=0;whiteSpace=wrap;html=1;" vertex="1" parent="1">
          <mxGeometry x="600" y="240" width="80" height="40" as="geometry" />
        </mxCell>
        <mxCell id="7KRmtmi9uo70IsTt9rsc-37" value="ppt" style="rounded=0;whiteSpace=wrap;html=1;" vertex="1" parent="1">
          <mxGeometry x="600" y="320" width="80" height="40" as="geometry" />
        </mxCell>
        <mxCell id="7KRmtmi9uo70IsTt9rsc-41" value="pdf" style="rounded=0;whiteSpace=wrap;html=1;" vertex="1" parent="1">
          <mxGeometry x="600" y="400" width="80" height="40" as="geometry" />
        </mxCell>
      </root>
    </mxGraphModel>
  </diagram>
</mxfile>
